<svg xmlns="http://www.w3.org/2000/svg" width="44" height="44">
  <circle cx="22" cy="22" r="21.949"/>
  <g fill="#FFF">
    <path d="M19.453 25.626l6.438-3.708-6.438-3.708v7.416z"/>
    <path d="M21.918 2.127c-10.929 0-19.791 8.862-19.791 19.791s8.862 19.791 19.791 19.791 19.791-8.862 19.791-19.791S32.847 2.127 21.918 2.127zm12.366 19.811s0 4.014-.509 5.949c-.285 1.059-1.121 1.895-2.18 2.18-1.935.509-9.677.509-9.677.509s-7.721 0-9.677-.53c-1.059-.285-1.895-1.121-2.18-2.18-.509-1.915-.509-5.949-.509-5.949s0-4.013.509-5.949c.285-1.059 1.141-1.915 2.18-2.2 1.935-.509 9.677-.509 9.677-.509s7.742 0 9.677.53c1.059.285 1.895 1.121 2.18 2.18.53 1.936.509 5.969.509 5.969z"/>
  </g>
</svg>
