<svg viewBox="0 0 713 194" xmlns="http://www.w3.org/2000/svg" xmlns:xlink="http://www.w3.org/1999/xlink" width="713.191" height="194.484">
  <defs>
    <linearGradient id="c" x1=".588" y1="1.154" x2=".325" y2="-.185" gradientUnits="objectBoundingBox">
      <stop offset="0" stop-color="#0c5c7a"/>
      <stop offset="1" stop-color="#3fc3d1"/>
    </linearGradient>
    <linearGradient id="a" x1=".974" y1="1.322" x2=".309" y2=".463" gradientUnits="objectBoundingBox">
      <stop offset="0" stop-color="#3fc3d1"/>
      <stop offset=".396" stop-color="#41c4d2"/>
      <stop offset=".634" stop-color="#49cad8"/>
      <stop offset=".829" stop-color="#58d4e2"/>
      <stop offset="1" stop-color="#6ce3f0"/>
    </linearGradient>
    <linearGradient id="d" x1=".686" y1=".988" x2=".336" y2=".091" gradientUnits="objectBoundingBox">
      <stop offset="0" stop-color="#0b6473"/>
      <stop offset="1" stop-color="#3fd1d1"/>
    </linearGradient>
    <linearGradient id="e" x1=".712" y1=".816" x2=".304" y2=".041" xlink:href="#a"/>
    <linearGradient id="b" x1=".082" y1="-.277" x2=".974" y2="1.38" gradientUnits="objectBoundingBox">
      <stop offset="0" stop-color="#ffe8b8"/>
      <stop offset=".036" stop-color="#ffe9bc"/>
      <stop offset=".282" stop-color="#fff2d9"/>
      <stop offset=".527" stop-color="#fff9ee"/>
      <stop offset=".767" stop-color="#fffdfa"/>
      <stop offset="1" stop-color="#fff"/>
    </linearGradient>
    <linearGradient id="f" x1=".32" y1="1.531" x2=".6" y2="-.073" gradientUnits="objectBoundingBox">
      <stop offset="0" stop-color="#d97e62"/>
      <stop offset=".093" stop-color="#de8b69"/>
      <stop offset=".325" stop-color="#e9a87a"/>
      <stop offset=".555" stop-color="#f0bd85"/>
      <stop offset=".781" stop-color="#f5c98c"/>
      <stop offset="1" stop-color="#f7ce8f"/>
    </linearGradient>
    <linearGradient id="g" x1=".561" y1="1.169" x2=".454" y2="-.005" gradientUnits="objectBoundingBox">
      <stop offset="0" stop-color="#80331a"/>
      <stop offset=".142" stop-color="#963e21"/>
      <stop offset=".361" stop-color="#b34b2a"/>
      <stop offset=".578" stop-color="#c85530"/>
      <stop offset=".793" stop-color="#d45b34"/>
      <stop offset="1" stop-color="#d95e36"/>
    </linearGradient>
    <linearGradient id="h" x1=".134" y1=".1" x2=".586" y2=".792" xlink:href="#b"/>
    <linearGradient id="i" x1=".501" y1="1.139" x2=".48" y2="-.908" xlink:href="#c"/>
    <linearGradient id="j" x1="-.037" y1="1.028" x2=".752" y2=".419" xlink:href="#a"/>
    <linearGradient id="k" x1=".5" y1="1" x2=".5" y2="0" xlink:href="#c"/>
  </defs>
  <g data-name="Group 283">
    <path data-name="Path 941" d="M142.274 194.484a15.163 15.163 0 00-9.652-4.789c-3.626-.338-6.079 2.309-5.04 4.789z" fill="#6ce3f0"/>
    <path data-name="Path 942" d="M931.5 828.745c3.966-6.027 23.791-17.876 48.95-14.665 27.464 3.506 33.5-4.141 44.82-7.32 20.729-5.821 36.728 13.384 43.893 1.2 9.148-15.558 24-23.248 69.283-7.945 10.757 3.635 10.019-4.418 14.915-9.12 9.508-9.132 21.023 7.724 26.307 6.8 6-1.051 4.168-8.226 7.68-14.369 7.319-12.8 19.952-.771 28.66-1.826 8.67-1.052 13.312-15.139 23.129-12.291 20.972 6.084 14.39 41.849 13.093 49.827 5.965-6.809 16.466-11.808 16.466 9.713z" transform="translate(-914.836 -634.261)" fill="url(#c)"/>
    <path data-name="Path 943" d="M917.5 828.223h129.3c6.72-24.486-19.671-12.243-19.671-12.243s9.948-25.755-.249-23.083c-9.844 2.581-14.164 22.645-14.164 22.645s-5.3-32.766-16.935-34.912c-7.549-1.394-1.625 31.152-1.625 31.152a19.6 19.6 0 00-10.865-3.566c-5.387-.075-4.083 6.28-4.083 6.28s-11.236-21.132-17.086-20.856c-7.337.345.532 22.544.532 22.544s-14.447-14.433-20.137-14.055c-7.909.525 5.88 21.137 5.88 21.137a45.491 45.491 0 00-22.943-4.828c-8.987.689-12.438 4.022-7.954 9.785z" transform="translate(-915.543 -633.74)" fill="url(#a)"/>
    <g data-name="Group 276">
      <path data-name="Path 944" d="M1185.608 747.494a13.652 13.652 0 00-9.377-5.433c-7.172-.963-4.711-8.259-10.944-10.19-6.574-2.038-7.127 2.82-23.938-5.937-4.7-2.448-13.416-3.215-17.286 1.436a12.2 12.2 0 00-2.154 9.979c.64 3.173 3.225 7.753.416 10.6-2.667 2.708-7.358 1.85-10.608 3.569-3.3 1.747-4.573 5.278-4.623 8.6-.118 7.766 3.509 16.141 8.882 22.068 11.195 12.35 31.368 15.3 47.3 9.984a36.493 36.493 0 0021.077-17.828c4.088-7.876 6.582-18.942 1.255-26.848z" transform="translate(-907.06 -636.247)" fill="url(#d)"/>
      <path data-name="Path 945" d="M1160.645 731.335c-3.549.155-7.248.879-19.3-5.4-4.7-2.445-13.413-3.212-17.286 1.439a12.2 12.2 0 00-2.151 9.979c.638 3.17 3.224 7.753.411 10.6-2.667 2.707-7.358 1.848-10.606 3.569-3.3 1.748-4.574 5.276-4.621 8.6-.122 7.768 3.508 16.145 8.877 22.07q.774.855 1.606 1.646c20.219 10.108 5.578-20.71 12.328-26.3 4.273-3.543 12.63 1.475 16.416-1.013 1.89-1.242 1.74-3.7.266-5.568-4.546-5.759-11.851-11.892-8.239-15.377 1.931-1.864 5.775-.842 13.018-.82 8.37.017 12.684-1.965 9.281-3.425z" transform="translate(-907.06 -636.247)" fill="url(#e)"/>
      <path data-name="Path 946" d="M244.897 192.716h-4.515l-.167-25.038-6.576-38.527 1.336-1.376 7.705 37.7 5.042-24.647 1.49 1.422-4.911 28.175z" fill="#2e3e5c"/>
      <path data-name="Path 947" d="M256.463 137.962l-9.664 13.1v-1.079l9.115-12.536z" fill="#2e3e5c"/>
      <path data-name="Path 948" d="M237.232 147.328l-9.666-9.126.381-.525 9.272 8.381z" fill="#2e3e5c"/>
      <path data-name="Path 949" d="M239.591 126.937l-2.428 12.317-.542-1.216 2.416-11.255z" fill="#2e3e5c"/>
    </g>
    <path data-name="Path 950" d="M693.928 194.484c-3.821-2.288-7.894-4.6-11.41-4.929-3.625-.338-4.4 2.235-4.808 4.929z" fill="#3fc3d1"/>
    <g data-name="Group 278">
      <path data-name="Path 951" d="M302.188 194.483h167.245V95.718l-83.622-76.852-83.623 76.852z" fill="#f7ce8f"/>
      <path data-name="Rectangle 172" transform="translate(331.66 113.788)" fill="url(#b)" d="M0 0h162.333v80.696H0z"/>
      <path data-name="Rectangle 173" transform="rotate(180 330.6195 97.2415)" fill="url(#f)" d="M0 0h167.245v80.696H0z"/>
      <path data-name="Rectangle 174" fill="#9d9d9c" d="M356.221 131.973h113.212v62.51H356.221z"/>
      <path data-name="Rectangle 175" fill="#f7ce8f" d="M363.823 194.483h-7.602v-62.51h7.602z"/>
      <g data-name="Group 277" fill="#415680">
        <path data-name="Rectangle 176" d="M363.823 131.973h105.61v1.368h-105.61z"/>
        <path data-name="Rectangle 177" d="M363.823 137.068h105.61v1.368h-105.61z"/>
        <path data-name="Rectangle 178" d="M363.823 142.163h105.61v1.368h-105.61z"/>
        <path data-name="Rectangle 179" d="M363.823 147.259h105.61v1.368h-105.61z"/>
        <path data-name="Rectangle 180" d="M363.823 152.354h105.61v1.368h-105.61z"/>
        <path data-name="Rectangle 181" d="M363.823 157.449h105.61v1.368h-105.61z"/>
        <path data-name="Rectangle 182" d="M363.823 162.544h105.61v1.368h-105.61z"/>
        <path data-name="Rectangle 183" d="M363.823 167.639h105.61v1.368h-105.61z"/>
        <path data-name="Rectangle 184" d="M363.823 172.735h105.61v1.368h-105.61z"/>
        <path data-name="Rectangle 185" d="M363.823 177.83h105.61v1.368h-105.61z"/>
        <path data-name="Rectangle 186" d="M363.823 182.925h105.61v1.368h-105.61z"/>
        <path data-name="Rectangle 187" d="M363.823 188.02h105.61v1.368h-105.61z"/>
        <path data-name="Rectangle 188" d="M363.823 193.115h105.61v1.368h-105.61z"/>
      </g>
      <path data-name="Path 952" d="M1114.255 658.035h182l-83.623 76.852h-181.981z" transform="translate(-910.445 -639.168)" fill="url(#g)"/>
      <path data-name="Path 953" d="M1149.419 733.607v-46.69h-55.554v46.69h-63.214v98.765h181.981v-98.765z" transform="translate(-910.445 -637.888)" fill="url(#h)"/>
      <path data-name="Rectangle 189" fill="#2e3e5c" d="M227.629 95.719h-32.864V62.063h32.864z"/>
      <path data-name="Rectangle 190" fill="#f7ce8f" d="M202.484 95.719h-7.719V62.063h7.719z"/>
      <path data-name="Rectangle 191" fill="#2e3e5c" d="M166.082 113.788h32.864v62.51h-32.864z"/>
      <path data-name="Rectangle 192" fill="#f7ce8f" d="M173.684 176.298h-7.602v-62.51h7.602z"/>
      <path data-name="Rectangle 193" fill="#2e3e5c" d="M256.312 194.483h-32.864v-80.696h32.864z"/>
      <path data-name="Rectangle 194" fill="#f7ce8f" d="M231.05 194.483h-7.602v-80.696h7.602z"/>
      <path data-name="Path 954" d="M238.974 49.029h50.8l-50.8 46.69z" fill="#f7ce8f"/>
      <path data-name="Rectangle 195" fill="#36a9e1" d="M181.043 124.042h17.903v52.256h-17.903z"/>
      <path data-name="Rectangle 196" fill="#36a9e1" d="M238.409 124.042h17.903v70.442h-17.903z"/>
      <path data-name="Rectangle 197" fill="#fff" d="M173.684 131.973h25.262v2.735h-25.262z"/>
      <path data-name="Rectangle 198" fill="#fff" d="M231.05 131.973h25.262v2.735H231.05z"/>
      <path data-name="Rectangle 199" fill="#36a9e1" d="M209.726 72.316h17.903v23.402h-17.903z"/>
    </g>
    <path data-name="Path 955" d="M1605.58 827.968c-2.851-8.579-17.1-25.444-35.183-20.874-19.739 4.99-24.077-5.894-32.214-10.42-14.9-8.286-22.235 12.272-31.549 1.706-13-14.753-23.539-16.257-31.935-2.663-12.074 19.549-31.868-2.1-36.312 32.251z" transform="translate(-892.389 -633.484)" fill="url(#i)"/>
    <path data-name="Path 956" d="M1596.032 828.035h-82.2c.468-28.645 7.082-10.256 7.082-10.256s2.176-20.935 6.985-21.784c4.542-.8 6.681 20.539 6.681 20.539s4.936-30.491 11.472-31.666c5.73-1.031 1.225 28.255 1.225 28.255a14.427 14.427 0 018.191-3.235c5.377-.251 3.181 5.7 3.181 5.7s6.718-13.243 11.129-12.994c5.532.313 1.725 13.737 1.725 13.737s4.066-4.422 8.332-5.045c8.346-1.218-.518 10.945-.518 10.945a69.6 69.6 0 0116.135-4.518c9.971-1.713 7.899 4.761.58 10.322z" transform="translate(-889.048 -633.552)" fill="url(#j)"/>
    <path data-name="Path 957" d="M620.697 194.484c-2.609-5.986-5.311-10.357-7.522-9.871-2.178.48-2.774 4.475-2.535 9.871z" fill="#3fc3d1"/>
    <path data-name="Path 958" d="M604.528 194.484c-3.821-2.288-7.895-4.6-11.41-4.929-3.625-.338-4.4 2.235-4.808 4.929z" fill="#3fc3d1"/>
    <path data-name="Path 959" d="M195.433 194.489c2.563-2.491 6.926-4.181 10.893-4.489 4.09-.318 6.859 2.165 5.686 4.489z" fill="#6ce3f0"/>
    <g data-name="Group 279">
      <path data-name="Rectangle 200" fill="#2e3e5c" d="M422.773 63.225h4.137v51.224h-4.137z"/>
      <path data-name="Rectangle 201" fill="#2e3e5c" d="M513.629 63.225h4.137v51.224h-4.137z"/>
      <path data-name="Path 960" d="M503.219 91.592l47-63.346 1.672 3.306-47 63.346H388.648l-1.672-3.307z" fill="#2e3e5c" fill-rule="evenodd"/>
      <path data-name="Path 961" d="M1333.108 667.015h116.242l-47 63.346h-116.242z" transform="translate(-899.132 -638.769)" fill-rule="evenodd" fill="url(#k)"/>
      <path data-name="Path 962" d="M527.027 59.503l-.615.827h-38.2l-23.194 31.263h-1.088l23.191-31.262h-37.67l-23.185 31.263h-1.088l23.194-31.263h-38.2l.615-.827h38.2l23.194-31.255h1.079l-23.194 31.255h37.667l23.194-31.255h1.079l-23.194 31.255z" fill="#d0f5fa"/>
    </g>
    <g data-name="Group 280">
      <path data-name="Rectangle 202" fill="#2e3e5c" d="M546.23 63.225h4.137v51.224h-4.137z"/>
      <path data-name="Rectangle 203" fill="#2e3e5c" d="M637.086 63.225h4.137v51.224h-4.137z"/>
      <path data-name="Path 963" d="M626.676 91.592l47-63.346 1.672 3.306-47 63.346H512.103l-1.672-3.307z" fill="#2e3e5c" fill-rule="evenodd"/>
      <path data-name="Path 964" d="M1451.33 667.015h116.242l-47 63.346H1404.33z" transform="translate(-893.897 -638.769)" fill-rule="evenodd" fill="url(#k)"/>
      <path data-name="Path 965" d="M650.486 59.503l-.615.827h-38.2l-23.194 31.263h-1.091L610.58 60.33h-37.668l-23.185 31.263h-1.088l23.194-31.263h-38.2l.615-.827h38.2l23.194-31.255h1.079l-23.194 31.255h37.667l23.194-31.255h1.079l-23.195 31.255z" fill="#d0f5fa"/>
    </g>
    <g data-name="Group 281">
      <path data-name="Rectangle 204" fill="#2e3e5c" d="M558.512 127.673h28.74v21.634h-28.74z"/>
      <path data-name="Rectangle 205" fill="#fff" d="M579.784 127.673h7.468v21.634h-7.468z"/>
      <path data-name="Rectangle 206" fill="#36a9e1" d="M565.518 134.037h14.266v15.27h-14.266z"/>
    </g>
    <g data-name="Group 282">
      <path data-name="Path 966" d="M307.548 46.146l47-46.146 1.672 2.409-47 46.146H192.978l-1.672-2.409z" fill="#2e3e5c" fill-rule="evenodd"/>
      <path data-name="Path 967" d="M1145.736 639.967h116.243l-47 46.146h-116.242z" transform="translate(-907.431 -639.967)" fill-rule="evenodd" fill="url(#k)"/>
      <path data-name="Path 968" d="M331.353 22.771l-.615.6h-38.2l-23.194 22.775h-1.091l23.2-22.773h-37.667L230.6 46.148h-1.088l23.194-22.775h-38.2l.615-.6h38.2L276.515.004h1.079L254.4 22.773h37.667L315.261.004h1.079l-23.194 22.769z" fill="#d0f5fa"/>
    </g>
  </g>
</svg>
