<svg viewBox="0 0 209 148" xmlns="http://www.w3.org/2000/svg" width="209.702" height="147.794">
  <g data-name="Group 226">
    <g data-name="Group 224">
      <g data-name="Group 33">
        <g data-name="Group 29">
          <path data-name="Path 33" d="M73.818 24.807a71.5 71.5 0 0019.462-3.373l.03.05c4.718 8.406 8.238 19.471 9.987 32.02a11.675 11.675 0 014.07-5.03 92.5 92.5 0 00-9.506-28.644v-.023c0-.007-.007-.009-.01-.016a71.06 71.06 0 009.353-4.538c.012.009.029.016.042.026a66.588 66.588 0 0125.866 30.99h5.147A71.506 71.506 0 0072.519.028c-.364-.026-.742-.026-1.1-.026-.407 0-.791 0-1.173.022a71.414 71.414 0 000 142.81c.384.022.766.022 1.173.022.364 0 .744 0 1.1-.022a69.9 69.9 0 0020.619-3.352l.6-5.269a60.718 60.718 0 01-5.842 1.8 44.223 44.223 0 006.466-7.353c.335-.479.672-.958.984-1.459-.262-.09-.529-.215-.791-.287l.547-4.91.574-5.315c-.744 1.652-1.557 3.235-2.4 4.72a70.275 70.275 0 00-19.469-3.373v-44.2h26.652l.547-4.791H73.813V24.807zm-24.264-3.346a.177.177 0 01.017-.026 71.472 71.472 0 0019.459 3.372v44.24H38.345c.334-18.894 4.6-35.826 11.209-47.562zm19.47-16.48v15.037a66.8 66.8 0 01-16.843-2.775C56.994 10.29 62.759 5.865 69.024 4.981zm4.8 0c6.265.885 12.029 5.309 16.836 12.259a66.7 66.7 0 01-16.836 2.777zm28.571 7.485a67.014 67.014 0 01-7.062 3.173 44.109 44.109 0 00-7.431-8.789 64.262 64.262 0 0114.493 5.619zM54.948 6.849a44.089 44.089 0 00-7.428 8.789 66.67 66.67 0 01-7.085-3.183 64.778 64.778 0 0114.508-5.608zm-19.331 8.41l.016-.01a71.152 71.152 0 009.36 4.542c0 .007-.006.009-.01.016v.023c-6.826 12.407-11.111 29.7-11.423 49.215H4.838a66.506 66.506 0 0130.774-53.787zM4.847 73.838h28.716c.311 19.493 4.6 36.786 11.423 49.19a67.473 67.473 0 00-9.365 4.575A66.434 66.434 0 014.838 73.836zm35.611 56.567a61.637 61.637 0 017.041-3.209 44.813 44.813 0 007.448 8.812 64.994 64.994 0 01-14.489-5.6zm28.574 7.473c-6.275-.885-12.045-5.315-16.859-12.286a66.624 66.624 0 0116.859-2.778zm21.648-12.286c-4.814 6.968-10.584 11.4-16.859 12.286V122.81a66.627 66.627 0 0116.859 2.778zm-21.648-7.563a71.577 71.577 0 00-19.471 3.372c-6.609-11.712-10.873-28.644-11.209-47.562h30.68zm140.641 5.777l-7.458-66.931a5.666 5.666 0 00-5.637-5.043h-82.126a5.666 5.666 0 00-5.637 5.043l-7.458 66.931a5.672 5.672 0 005.009 6.263 5.6 5.6 0 00.628.035h34.679v6.392h-6.793v11.3h41.274v-11.3h-6.793v-6.392h34.68a5.668 5.668 0 005.633-6.3zm-8.609-34.034h-20.687l-1.044-15.622h19.989zm-20.524 2.4h20.79l1.74 15.619h-21.481zm16.916-34.761l1.6 14.353h-19.881l-1.017-15.136h18.423a.879.879 0 01.874.779zm-65 16.741h21.856V89.77h-22.905zm21.86 18.016v15.619h-24.118l1.049-15.619zm-21.7-20.413l1.016-15.136h20.681v15.128zm45.359 18.017h-21.266V74.147h20.221zm-1.208-18.016h-20.058V56.612h19.046zm-20.058 20.413h21.429l1.049 15.618h-22.476zm-42.263-35.542h16.784l-1.016 15.136h-18.246l1.6-14.353a.886.886 0 01.878-.787zM127.8 107.79h-19.845l1.739-15.619h19.151zm-17.837-18.019l1.745-15.618h18.352l-1.049 15.618zm-3.633 35.251a.873.873 0 01-.219-.685l1.576-14.158h19.951l-1.015 15.136h-19.637a.868.868 0 01-.656-.3zm22.693.295l1.016-15.136h24.276v15.136zm42.332 15.971v1.717h-31.692v-1.717h31.692zm-6.793-4.79h-18.1v-6.394h18.1zm-7.855-11.181v-15.143h22.638l1.015 15.136h-23.653zm47.981-.295a.864.864 0 01-.655.295h-21.272l-1.016-15.136h21.586l1.576 14.156a.866.866 0 01-.217.685z" fill="#e6680c"/>
        </g>
      </g>
    </g>
  </g>
</svg>
