<svg viewBox="0 0 254 141" xmlns="http://www.w3.org/2000/svg" width="254.412" height="140.782">
  <g data-name="Group 376">
    <g data-name="Group 225">
      <g data-name="Group 30">
        <path data-name="Path 29" d="M254.375 99.153l-7.648-71.164a5.894 5.894 0 00-5.781-5.361h-84.217a5.891 5.891 0 00-5.777 5.36l-7.647 71.174a5.979 5.979 0 005.129 6.658 5.649 5.649 0 00.65.037h35.563v6.8h-6.965v12.008h18.7v11.015H70.141v-10.406h52.922a2.5 2.5 0 002.457-2.548V52.069l6.144 3.771a2.407 2.407 0 003.363-.9 2.612 2.612 0 00.342-1.3V42.547a2.57 2.57 0 00-1.205-2.194l-65.235-40a2.374 2.374 0 00-2.5 0l-65.232 40a2.563 2.563 0 00-1.2 2.19v11.1A2.5 2.5 0 002.45 56.19a2.4 2.4 0 001.252-.355l6.149-3.771v70.657a2.5 2.5 0 002.455 2.548h52.923v15.515h136.064v-16.115H220V112.66h-6.97v-6.8h35.565a5.923 5.923 0 005.814-6.022 6.414 6.414 0 00-.038-.681zM4.915 49.18v-5.177l62.777-38.5 62.777 38.5v5.177L68.946 11.448a2.375 2.375 0 00-2.5 0zm44.346 24.465v46.53H14.769V49.052l52.922-32.455 52.922 32.456v71.123h-34.5V73.647a2.5 2.5 0 00-2.455-2.549H51.715a2.5 2.5 0 00-2.457 2.545zm4.914 46.53V76.191h27.026v43.986H54.176zm186.774-92.456a.916.916 0 01.9.836l1.642 15.259h-20.387l-1.042-16.09zm-40.884 0h19.529l1.042 16.091h-20.571zm0 18.639H220.8l1.074 16.608H200.06v-16.6zm0 19.155h21.975l1.073 16.607h-23.049zm-23.66-37.8h21.206v16.09h-22.245zm31.717 78.135v6.8h-18.568v-6.8zm-32.925-59.493h22.414v16.6h-23.489zm22.414 19.156v16.608h-24.725l1.071-16.61h23.653zm-41.778-36.96a.915.915 0 01.9-.832h17.213l-1.042 16.09h-18.705zm13.382 72.211h-20.136a.883.883 0 01-.671-.308.97.97 0 01-.227-.731l1.618-15.052h20.455zm1.2-18.638h-20.346l1.786-16.608h19.637zm-18.287-19.158l1.785-16.6h18.82l-1.074 16.6zm19.542 37.8l1.042-16.09h24.89v16.09zm43.414 16.991v1.822h-32.5v-1.832zm-2.055-16.986h-12.964v-16.1h23.212l1.041 16.09zm10.228-54.4h20.5l1.781 16.6h-21.203zm1.24 19.154h21.318l1.785 16.608h-22.027zm24.766 34.938a.882.882 0 01-.672.309h-21.817l-1.041-16.091h22.134l1.618 15.053a.954.954 0 01-.226.728z" fill="#d33b19"/>
      </g>
    </g>
  </g>
</svg>
