<svg xmlns="http://www.w3.org/2000/svg" width="44" height="44">
  <path d="M26.231 22.025c0 2.323-1.883 4.206-4.206 4.206s-4.206-1.883-4.206-4.206 1.883-4.206 4.206-4.206 4.206 1.883 4.206 4.206z"/>
  <path d="M31.862 14.584c-.202-.548-.525-1.044-.944-1.451-.407-.419-.903-.742-1.451-.944-.445-.173-1.113-.378-2.343-.434-1.331-.061-1.73-.074-5.099-.074s-3.769.013-5.099.073c-1.23.056-1.899.262-2.343.435-.548.202-1.044.525-1.451.944-.419.407-.742.903-.944 1.451-.173.445-.378 1.113-.434 2.343-.061 1.33-.074 1.73-.074 5.099s.013 3.768.074 5.099c.056 1.23.262 1.898.434 2.343.203.548.525 1.044.944 1.451.407.419.903.742 1.451.944.445.173 1.113.379 2.343.435 1.33.061 1.729.073 5.099.073s3.769-.013 5.099-.073c1.23-.056 1.899-.262 2.343-.435 1.1-.424 1.97-1.294 2.395-2.395.173-.445.378-1.113.435-2.343.061-1.331.073-1.73.073-5.099s-.013-3.769-.073-5.099c-.057-1.231-.262-1.899-.435-2.343zm-9.837 13.921c-3.579 0-6.48-2.901-6.48-6.479s2.901-6.479 6.48-6.479c3.578 0 6.479 2.901 6.479 6.479s-2.9 6.479-6.479 6.479zm6.736-11.701c-.836 0-1.514-.678-1.514-1.514s.678-1.514 1.514-1.514 1.514.678 1.514 1.514-.678 1.514-1.514 1.514z"/>
  <path d="M22.025.051C9.891.051.05 9.891.05 22.026S9.891 44 22.025 44 44 34.16 44 22.025 34.16.051 22.025.051zm12.542 27.177c-.061 1.343-.275 2.26-.586 3.063-.656 1.695-1.995 3.035-3.69 3.69-.802.312-1.72.525-3.063.586-1.346.061-1.775.076-5.202.076s-3.857-.015-5.203-.076c-1.343-.061-2.26-.275-3.063-.586-.842-.317-1.605-.813-2.235-1.456-.642-.63-1.138-1.393-1.455-2.235-.312-.802-.525-1.72-.586-3.063-.062-1.346-.076-1.776-.076-5.203s.014-3.857.076-5.202c.061-1.343.274-2.26.586-3.063.317-.842.814-1.605 1.456-2.235.63-.642 1.393-1.139 2.235-1.456.803-.312 1.72-.525 3.063-.586 1.346-.061 1.775-.076 5.202-.076s3.857.015 5.202.076c1.343.061 2.26.274 3.063.586.842.317 1.605.814 2.235 1.456.642.63 1.139 1.393 1.455 2.235.312.803.525 1.72.587 3.063.061 1.346.076 1.775.076 5.202s-.015 3.858-.077 5.204z"/>
</svg>
