<svg xmlns="http://www.w3.org/2000/svg" width="44" height="44">
  <circle cx="22" cy="22" r="21.949"/>
  <g>
    <path d="M25.895 22.025c0 2.137-1.732 3.87-3.87 3.87s-3.87-1.732-3.87-3.87 1.732-3.87 3.87-3.87 3.87 1.733 3.87 3.87z"/>
    <path d="M31.075 15.179c-.186-.504-.483-.96-.868-1.335-.375-.386-.83-.682-1.335-.868-.409-.159-1.024-.348-2.155-.399-1.224-.056-1.591-.068-4.691-.068-3.1 0-3.467.012-4.691.068-1.132.052-1.747.241-2.155.4-.504.186-.961.483-1.335.868-.386.375-.682.83-.869 1.335-.159.409-.348 1.024-.399 2.156-.056 1.224-.068 1.591-.068 4.691 0 3.1.012 3.467.068 4.691.052 1.132.241 1.746.399 2.155.186.504.483.96.868 1.335.375.386.83.682 1.335.868.409.159 1.024.348 2.156.4 1.224.056 1.591.068 4.691.068 3.1 0 3.467-.012 4.691-.068 1.132-.052 1.747-.241 2.156-.4 1.012-.391 1.813-1.191 2.203-2.203.159-.409.348-1.024.4-2.155.056-1.224.068-1.591.068-4.691 0-3.1-.012-3.467-.068-4.691-.053-1.133-.242-1.748-.401-2.157zm-9.05 12.808c-3.292 0-5.962-2.669-5.962-5.961s2.669-5.961 5.962-5.961c3.292 0 5.961 2.669 5.961 5.961s-2.668 5.961-5.961 5.961zm6.197-10.765c-.769 0-1.393-.624-1.393-1.393s.624-1.393 1.393-1.393 1.393.624 1.393 1.393-.623 1.393-1.393 1.393z"/>
    <path d="M22.025 1.808c-11.164 0-20.217 9.053-20.217 20.217s9.053 20.217 20.217 20.217 20.217-9.053 20.217-20.217S33.189 1.808 22.025 1.808zm11.539 25.004c-.056 1.236-.253 2.08-.54 2.818-.603 1.559-1.836 2.792-3.395 3.395-.738.287-1.582.483-2.818.54-1.238.056-1.633.07-4.786.07-3.153 0-3.548-.014-4.787-.07-1.235-.056-2.08-.253-2.818-.54-.775-.292-1.476-.748-2.056-1.339-.59-.58-1.047-1.281-1.339-2.056-.287-.738-.483-1.582-.54-2.818-.057-1.238-.07-1.634-.07-4.787s.013-3.548.07-4.786c.056-1.236.252-2.08.539-2.818.292-.775.749-1.476 1.339-2.056.58-.591 1.281-1.048 2.056-1.339.739-.287 1.582-.483 2.818-.54 1.238-.056 1.633-.07 4.786-.07s3.548.014 4.786.07c1.236.056 2.08.252 2.818.539.775.292 1.476.749 2.056 1.339.59.58 1.048 1.281 1.339 2.056.287.739.483 1.582.54 2.818.056 1.238.07 1.633.07 4.786s-.011 3.55-.068 4.788z"/>
  </g>
</svg>
