<svg xmlns="http://www.w3.org/2000/svg" width="103.807" height="143.296">
  <path data-name="Path 887" d="M65.295 127.095v13.19a3.021 3.021 0 01-3.012 3.012H43.96a3.021 3.021 0 01-3.01-3.012v-13.19z" fill="#1cadbd" fill-rule="evenodd"/>
  <path data-name="Path 888" d="M40.95 119.553h24.345a1.613 1.613 0 011.608 1.608v4.327a1.613 1.613 0 01-1.608 1.608H40.95a1.613 1.613 0 01-1.608-1.608v-4.327a1.613 1.613 0 011.608-1.608z" fill="#1cadbd" fill-rule="evenodd"/>
  <path data-name="Path 889" d="M65.295 119.553h-8.909a1.613 1.613 0 011.608 1.608v4.327a1.612 1.612 0 01-1.608 1.608h8.909a1.613 1.613 0 001.608-1.608v-4.327a1.614 1.614 0 00-1.608-1.608z" fill="#0e7f8a" fill-rule="evenodd"/>
  <path data-name="Path 890" d="M62.284 143.296a3.021 3.021 0 003.012-3.012v-13.188H40.951v3.476h16.943v9.713a3.021 3.021 0 01-3.013 3.012z" fill="#0e7f8a" fill-rule="evenodd"/>
  <path data-name="Path 891" d="M35.788 101.356h34.669v5.934a1.613 1.613 0 01-1.608 1.608H37.395a1.612 1.612 0 01-1.607-1.608v-5.934z" fill="#1cadbd" fill-rule="evenodd"/>
  <path data-name="Path 892" d="M70.457 101.356H57.286v5.934a1.613 1.613 0 01-1.608 1.608h13.173a1.613 1.613 0 001.608-1.608v-5.934z" fill="#0e7f8a" fill-rule="evenodd"/>
  <path data-name="Path 893" d="M55.23.059c-.7-.03-1.4-.059-2.1-.059s-1.4.03-2.1.059a50.654 50.654 0 00-48.578 50.62c0 21.764 18.468 41.458 33.347 50.677h34.662c14.879-9.219 33.347-28.913 33.347-50.677A50.654 50.654 0 0055.23.059z" fill="#f09723" fill-rule="evenodd"/>
  <path data-name="Path 894" d="M55.375.059C54.626.029 53.875 0 53.129 0s-1.5.03-2.246.059C27.675 1.43 9.269 23.574 9.269 50.679c0 21.764 15.972 41.458 28.855 50.677h30.011C81.018 92.137 96.99 72.443 96.99 50.679c0-27.105-18.406-49.249-41.615-50.62z" fill="#f2f2f2" fill-rule="evenodd"/>
  <path data-name="Path 895" d="M53.129 0C36.273 0 22.641 22.7 22.641 50.679c0 21.764 11.114 41.458 20.049 50.677h20.878c8.935-9.219 20.049-28.913 20.049-50.677C83.617 22.699 69.985 0 53.129 0z" fill="#f09723" fill-rule="evenodd"/>
  <path data-name="Path 896" d="M53.129.001c-6.731 0-12.166 22.7-12.166 50.678 0 21.764 4.438 41.458 8 50.677h8.333c3.562-9.219 8-28.913 8-50.677C65.295 22.699 59.861.001 53.129.001z" fill="#f2f2f2" fill-rule="evenodd"/>
  <ellipse data-name="Ellipse 24" cx="26.398" cy="23.498" rx="26.398" ry="23.498" transform="rotate(-64.87 38.19810707 24.274)" fill="#ffc780"/>
  <path data-name="Path 897" d="M53.751 44.597C47.561 57.803 33.012 64.039 21.28 58.52A22.164 22.164 0 019.57 44.642c1.43-14.1 7.888-26.416 17.251-34.5a21.889 21.889 0 0116.874.581c11.756 5.515 16.248 20.689 10.056 33.874z" fill="#fff" fill-rule="evenodd"/>
  <path data-name="Path 898" d="M53.751 44.597C47.561 57.803 33.012 64.039 21.28 58.52A22.164 22.164 0 019.57 44.642c1.43-14.1 7.888-26.416 17.251-34.5a21.889 21.889 0 0116.874.581c11.756 5.515 16.248 20.689 10.056 33.874z" fill="#fff" fill-rule="evenodd"/>
  <path data-name="Path 899" d="M53.756 44.598C47.901 57.09 34.582 63.348 23.23 59.303a64.482 64.482 0 01-.581-8.627c0-17.409 5.274-32.762 13.32-41.9a21.232 21.232 0 017.732 1.946c11.749 5.516 16.241 20.69 10.055 33.876z" fill="#ffda26" fill-rule="evenodd"/>
  <path data-name="Path 900" d="M53.756 44.598C47.901 57.09 34.582 63.348 23.23 59.303a64.482 64.482 0 01-.581-8.627c0-17.409 5.274-32.762 13.32-41.9a21.232 21.232 0 017.732 1.946c11.749 5.516 16.241 20.69 10.055 33.876z" fill="#ffc780" fill-rule="evenodd"/>
  <path data-name="Path 901" d="M53.752 44.597a28.252 28.252 0 01-12.626 13.252c-.111-2.368-.156-4.761-.156-7.174 0-15.71 1.72-29.767 4.4-39.064 10.506 6.101 14.259 20.45 8.382 32.986z" fill="#fff" fill-rule="evenodd"/>
  <path data-name="Path 902" d="M53.752 44.597a28.252 28.252 0 01-12.626 13.252c-.111-2.368-.156-4.761-.156-7.174 0-15.71 1.72-29.767 4.4-39.064 10.506 6.101 14.259 20.45 8.382 32.986z" fill="#fff" fill-rule="evenodd"/>
</svg>
