<svg viewBox="0 0 255 225" xmlns="http://www.w3.org/2000/svg" width="255.374" height="224.907">
  <g data-name="Group 31">
    <path data-name="Path 41" d="M201.099 218.631v-42.372a3.144 3.144 0 00-.886-2.183l-27.262-28.17 39.375-39.376a3.137 3.137 0 000-4.436l-9.018-9.023a3.142 3.142 0 00-4.437 0l-83.721 83.723a3.137 3.137 0 000 4.436l9.022 9.022a3.14 3.14 0 004.437 0l39.906-39.906 26.308 27.182v41.1h-87.89v-42.369a3.137 3.137 0 00-.885-2.183l-27.341-28.255 54.989-54.99a3.136 3.136 0 000-4.436l-9.022-9.022a3.137 3.137 0 00-4.436 0L5.133 192.487a3.138 3.138 0 000 4.437l9.022 9.022a3.141 3.141 0 004.437 0l55.683-55.683 26.383 27.262v41.1H29.321v6.277h226.054v-6.277zm-74.709-35.037l-4.581-4.58 79.286-79.285 4.58 4.58zM16.372 199.287l-4.58-4.58L122.46 84.033l4.58 4.58zM89.493 52.794a36.7 36.7 0 10-36.7 36.7 36.738 36.738 0 0036.7-36.7zm-36.7 30.426a30.423 30.423 0 1130.421-30.426A30.423 30.423 0 0152.795 83.22zm52.791-27.289H91.765v-6.277h13.818zM49.653 91.77h6.276v13.817h-6.276zm6.28-77.952h-6.276V0h6.276zM13.816 55.93H-.002v-6.276h13.818zm9.194-28.478l-9.768-9.768 4.436-4.437 9.773 9.766zm64.9 64.893l-9.772-9.768 4.437-4.437 9.772 9.768zm-64.9-14.209l4.436 4.437-9.764 9.772-4.437-4.437zm59.562-50.683l-4.437-4.44 9.772-9.768 4.437 4.437z" fill="#de5117"/>
  </g>
</svg>
