<svg viewBox="0 0 198 198" xmlns="http://www.w3.org/2000/svg" width="198.313" height="198.313">
  <g data-name="Group 381" transform="translate(-1699.74 -881.516)">
    <circle data-name="Ellipse 14" cx="62.84" cy="62.84" r="62.84" transform="translate(1736.033 917.963)" fill="#ffcb69"/>
    <path data-name="Path 39" d="M1798.896 1046.616a65.939 65.939 0 1165.944-65.944 66.013 66.013 0 01-65.944 65.944zm0-126.074a60.135 60.135 0 1060.138 60.135 60.2 60.2 0 00-60.138-60.14zm2.9 159.291h-5.8v-25.956h5.8zm96.256-96.256h-25.951v-5.8h25.951zm-172.361 0h-25.951v-5.8h25.951zm76.106-76.106h-5.8v-25.955h5.8zm65.164 145.365l-18.35-18.35 4.1-4.1 18.35 18.35zm-136.126 0l-4.1-4.1 18.35-18.35 4.1 4.1zm121.875-121.875l-4.1-4.1 18.35-18.35 4.1 4.1zm-107.628 0l-18.35-18.35 4.1-4.1 18.35 18.35zm39.514 88.667a2.9 2.9 0 01-2.739-3.855l9.209-26.394h-10.34a2.9 2.9 0 01-2.436-4.478l28.322-43.8a2.9 2.9 0 015.237 2.33l-7.867 29.325h10.641a2.9 2.9 0 012.343 4.617l-30.026 41.075a2.923 2.923 0 01-2.344 1.18zm1.463-36.056h9.091a2.9 2.9 0 012.739 3.858l-4.136 11.856 15.155-20.73h-8.707a2.9 2.9 0 01-2.8-3.653l4.065-15.155z" fill="#e6680c"/>
  </g>
</svg>
