<svg xmlns="http://www.w3.org/2000/svg" width="44" height="44">
  <path d="M19.168 26.055l7.183-4.137-7.183-4.137v8.274z"/>
  <path d="M21.918-.164C9.724-.164-.164 9.724-.164 21.918S9.724 44 21.918 44 44 34.112 44 21.918 34.112-.164 21.918-.164zm13.798 22.105s0 4.478-.568 6.638c-.318 1.182-1.25 2.114-2.432 2.432-2.159.568-10.797.568-10.797.568s-8.615 0-10.797-.591c-1.182-.318-2.114-1.25-2.432-2.432-.57-2.137-.57-6.638-.57-6.638s0-4.478.568-6.637c.318-1.182 1.273-2.137 2.432-2.455 2.159-.568 10.797-.568 10.797-.568s8.638 0 10.797.591c1.182.318 2.114 1.25 2.432 2.432.593 2.159.57 6.66.57 6.66z"/>
</svg>
